<svg 
 xmlns="http://www.w3.org/2000/svg"
 xmlns:xlink="http://www.w3.org/1999/xlink"
 width="77.5px" height="109.5px">
<path fill-rule="evenodd"  stroke="rgb(47, 47, 47)" stroke-width="1px" stroke-linecap="butt" stroke-linejoin="miter" fill="rgb(11, 11, 11)"
 d="M6.756,12.392 C6.756,12.392 12.127,7.779 12.127,7.779 C12.127,7.779 75.819,7.779 75.819,7.779 C75.819,7.779 75.819,107.739 75.819,107.739 C75.819,107.739 6.756,107.739 6.756,107.739 C6.756,107.739 6.756,12.392 6.756,12.392 Z"/>
<path fill-rule="evenodd"  stroke="rgb(125, 138, 146)" stroke-width="2px" stroke-linecap="butt" stroke-linejoin="miter" fill="rgb(13, 26, 35)"
 d="M1.220,5.737 C1.220,5.737 6.592,1.123 6.592,1.123 C6.592,1.123 70.283,1.123 70.283,1.123 C70.283,1.123 70.283,101.084 70.283,101.084 C70.283,101.084 1.220,101.084 1.220,101.084 C1.220,101.084 1.220,5.737 1.220,5.737 Z"/>
<path fill-rule="evenodd"  stroke="rgb(66, 75, 84)" stroke-width="1px" stroke-linecap="butt" stroke-linejoin="miter" fill="none"
 d="M2.755,4.968 C2.755,4.968 9.661,11.119 9.661,11.119 C9.661,11.119 20.404,11.119 20.404,11.119 C20.404,11.119 44.193,1.123 44.193,1.123 C44.193,1.123 58.773,1.123 58.773,1.123 C58.773,1.123 62.610,6.506 62.610,6.506 C62.610,6.506 64.145,1.123 64.145,1.123 "/>
<path fill-rule="evenodd"  stroke="rgb(66, 75, 84)" stroke-width="1px" stroke-linecap="butt" stroke-linejoin="miter" fill="none"
 d="M15.033,22.653 C15.033,22.653 14.265,27.267 14.265,27.267 C14.265,27.267 16.567,27.267 16.567,27.267 C16.567,27.267 19.637,21.115 19.637,21.115 C19.637,21.115 15.033,22.653 15.033,22.653 Z"/>
<path fill-rule="evenodd"  stroke="rgb(66, 75, 84)" stroke-width="1px" stroke-linecap="butt" stroke-linejoin="miter" fill="none"
 d="M13.498,38.801 C13.498,38.801 16.567,45.721 16.567,45.721 "/>
<path fill-rule="evenodd"  stroke="rgb(66, 75, 84)" stroke-width="1px" stroke-linecap="butt" stroke-linejoin="miter" fill="none"
 d="M68.749,11.119 C68.749,11.119 62.610,17.271 62.610,17.271 C62.610,17.271 65.679,18.809 65.679,18.809 C65.679,18.809 69.516,14.195 69.516,14.195 C69.516,14.195 68.749,11.119 68.749,11.119 Z"/>
<path fill-rule="evenodd"  stroke="rgb(66, 75, 84)" stroke-width="1px" stroke-linecap="round" stroke-linejoin="miter" fill="none"
 d="M61.842,21.884 C61.842,21.884 56.471,28.805 56.471,28.805 "/>
<path fill-rule="evenodd"  stroke="rgb(66, 75, 84)" stroke-width="1px" stroke-linecap="round" stroke-linejoin="round" fill="none"
 d="M56.471,35.725 C56.471,35.725 58.005,35.725 58.005,35.725 C58.005,35.725 58.005,41.107 58.005,41.107 C58.005,41.107 56.471,41.107 56.471,41.107 C56.471,41.107 56.471,35.725 56.471,35.725 Z"/>
<path fill-rule="evenodd"  stroke="rgb(66, 75, 84)" stroke-width="1px" stroke-linecap="round" stroke-linejoin="round" fill="none"
 d="M55.234,53.800 C55.234,53.800 56.666,53.800 56.666,53.800 C56.666,53.800 54.136,58.642 54.136,58.642 C54.136,58.642 52.975,58.642 52.975,58.642 C52.975,58.642 55.234,53.800 55.234,53.800 Z"/>
<path fill-rule="evenodd"  stroke="rgb(66, 75, 84)" stroke-width="1px" stroke-linecap="round" stroke-linejoin="round" fill="none"
 d="M18.400,56.106 C18.400,56.106 19.833,56.106 19.833,56.106 C19.833,56.106 15.800,61.099 15.800,61.099 C15.800,61.099 14.265,61.868 14.265,61.868 C14.265,61.868 18.400,56.106 18.400,56.106 Z"/>
<path fill-rule="evenodd"  stroke="rgb(66, 75, 84)" stroke-width="1px" stroke-linecap="round" stroke-linejoin="round" fill="none"
 d="M31.915,88.781 C31.915,88.781 28.845,91.088 28.845,91.088 C28.845,91.088 25.776,91.088 25.776,91.088 "/>
<path fill-rule="evenodd"  stroke="rgb(66, 75, 84)" stroke-width="1px" stroke-linecap="round" stroke-linejoin="round" fill="none"
 d="M48.030,71.864 C48.030,71.864 41.891,78.785 41.891,78.785 C41.891,78.785 43.425,78.785 43.425,78.785 C43.425,78.785 48.030,71.864 48.030,71.864 Z"/>
<path fill-rule="evenodd"  stroke="rgb(66, 75, 84)" stroke-width="1px" stroke-linecap="round" stroke-linejoin="round" fill="none"
 d="M8.126,74.171 C8.126,74.171 10.429,77.247 10.429,77.247 C10.429,77.247 8.894,73.402 8.894,73.402 C8.894,73.402 8.126,74.171 8.126,74.171 Z"/>
</svg>