<?xml version="1.0" encoding="utf-8"?>
<!-- Generator: Adobe Illustrator 18.0.0, SVG Export Plug-In . SVG Version: 6.00 Build 0)  -->
<!DOCTYPE svg PUBLIC "-//W3C//DTD SVG 1.1//EN" "http://www.w3.org/Graphics/SVG/1.1/DTD/svg11.dtd">
<svg version="1.1" id="图层_1" xmlns="http://www.w3.org/2000/svg" xmlns:xlink="http://www.w3.org/1999/xlink" x="0px" y="0px"
	 viewBox="0 0 48 48" enable-background="new 0 0 48 48" xml:space="preserve">
<path fill="#0B0B0B" stroke="#383838" stroke-width="2" d="M10.4,5.7l2.4-2h27.7v43.5H10.4V5.7z"/>
<path fill="#0D1A23" stroke="#3D4951" stroke-width="2" d="M7.6,2.8l2.4-2h27.7v43.5H7.6V2.8z"/>
<path fill="none" stroke="#3D4951" d="M8.3,2.5l3,2.7H16l10.4-4.3h6.4l1.7,2.4l0.7-2.4"/>
<path fill="none" stroke="#3D4951" d="M13.7,10.1l-0.3,2h1l1.4-2.7L13.7,10.1z"/>
<path fill="none" stroke="#3D4951" d="M13,17.2l1.4,3"/>
<path fill="none" stroke="#3D4951" d="M37,5.1l-2.7,2.7l1.4,0.7l1.7-2L37,5.1z"/>
<path fill="none" stroke="#3D4951" stroke-linecap="round" d="M34.1,9.8l-2.4,3"/>
<path fill="none" stroke="#3D4951" stroke-linecap="round" stroke-linejoin="round" d="M31.7,15.8h0.7v2.4h-0.7V15.8z"/>
<path fill="none" stroke="#3D4951" stroke-linecap="round" stroke-linejoin="round" d="M31.2,23.7h0.6l-1.1,2.1h-0.5L31.2,23.7z"/>
<path fill="none" stroke="#3D4951" stroke-linecap="round" stroke-linejoin="round" d="M15.1,24.7h0.6L14,26.9l-0.7,0.3L15.1,24.7z"
	/>
<path fill="none" stroke="#3D4951" stroke-linecap="round" stroke-linejoin="round" d="M21,38.9l-1.4,1h-1.4"/>
<path fill="none" stroke="#3D4951" stroke-linecap="round" stroke-linejoin="round" d="M28,31.5l-2.7,3H26L28,31.5z"/>
<path fill="none" stroke="#3D4951" stroke-linecap="round" stroke-linejoin="round" d="M10.7,32.6l1,1.4L11,32.2L10.7,32.6z"/>
</svg>
